<svg xmlns="http://www.w3.org/2000/svg" xmlns:xlink="http://www.w3.org/1999/xlink" width="500" zoomAndPan="magnify" viewBox="0 0 375 374.999991" height="500" preserveAspectRatio="xMidYMid meet" version="1.0"><defs><clipPath id="00a03384d3"><path d="M 15.652344 23.859375 L 359.152344 23.859375 L 359.152344 350.859375 L 15.652344 350.859375 Z M 15.652344 23.859375 " clip-rule="nonzero"/></clipPath><clipPath id="0483f0bd0d"><path d="M 158.691406 116.539062 L 268.941406 116.539062 L 268.941406 221.539062 L 158.691406 221.539062 Z M 158.691406 116.539062 " clip-rule="nonzero"/></clipPath></defs><g clip-path="url(#00a03384d3)"><path fill="#000000" d="M 353.414062 133.25 C 334.820312 64.777344 278.570312 23.898438 202.933594 23.898438 L 15.65625 23.898438 L 19.347656 32.367188 C 35.222656 68.746094 71.136719 92.269531 110.835938 92.277344 L 161.832031 92.277344 L 162.25 92.269531 C 164.1875 92.128906 171.351562 91.691406 182.09375 91.691406 C 192.425781 91.691406 202.953125 92.101562 213.34375 92.898438 L 214.363281 92.976562 C 254.152344 96.105469 308.664062 106.507812 342.351562 138.21875 L 342.785156 138.625 C 342.960938 138.792969 343.136719 138.953125 343.304688 139.125 L 359.335938 155.089844 Z M 358.542969 212.164062 L 358.5 212.820312 C 348.386719 298.136719 288.136719 351.128906 201.265625 351.128906 L 81.789062 351.128906 L 81.789062 189.609375 L 87.832031 189.609375 C 122.8125 189.609375 151.269531 218.066406 151.269531 253.046875 L 151.269531 281.644531 L 204.183594 281.644531 C 230.246094 281.644531 252.191406 273.085938 267.660156 256.890625 C 283.398438 240.410156 291.714844 216.589844 291.714844 188.007812 L 291.714844 187.023438 C 291.714844 164.890625 286.851562 145.808594 277.25 130.296875 L 268.285156 115.816406 L 284.375 121.398438 C 304.335938 128.324219 320.527344 137.550781 332.496094 148.824219 C 349.988281 165.300781 358.75 186.605469 358.542969 212.164062 " fill-opacity="1" fill-rule="nonzero"/></g><g clip-path="url(#0483f0bd0d)"><path fill="#000000" d="M 160.789062 186.511719 C 166.742188 208.4375 184.753906 221.527344 208.972656 221.527344 L 268.941406 221.527344 L 267.757812 218.816406 C 262.675781 207.167969 251.175781 199.636719 238.460938 199.632812 L 222.132812 199.632812 L 222 199.636719 C 221.378906 199.679688 219.085938 199.820312 215.644531 199.820312 C 212.335938 199.820312 208.964844 199.6875 205.640625 199.433594 L 205.3125 199.410156 C 192.570312 198.40625 175.117188 195.074219 164.332031 184.921875 L 164.191406 184.792969 C 164.136719 184.738281 164.078125 184.6875 164.023438 184.632812 L 158.890625 179.519531 Z M 159.144531 161.242188 L 159.160156 161.035156 C 162.398438 133.714844 181.691406 116.746094 209.507812 116.746094 L 247.765625 116.746094 L 247.765625 168.464844 L 245.828125 168.464844 C 234.628906 168.464844 225.515625 159.355469 225.515625 148.152344 L 225.515625 138.996094 L 208.570312 138.996094 C 200.226562 138.996094 193.199219 141.738281 188.246094 146.921875 C 183.207031 152.199219 180.542969 159.828125 180.542969 168.980469 L 180.542969 169.292969 C 180.542969 176.378906 182.101562 182.492188 185.175781 187.457031 L 188.046875 192.09375 L 182.894531 190.308594 C 176.503906 188.089844 171.316406 185.136719 167.484375 181.523438 C 161.886719 176.25 159.078125 169.425781 159.144531 161.242188 " fill-opacity="1" fill-rule="nonzero"/></g></svg>